<?xml version="1.0" encoding="UTF-8" standalone="no"?>
<svg
   xmlns:dc="http://purl.org/dc/elements/1.1/"
   xmlns:cc="http://creativecommons.org/ns#"
   xmlns:rdf="http://www.w3.org/1999/02/22-rdf-syntax-ns#"
   xmlns:svg="http://www.w3.org/2000/svg"
   xmlns="http://www.w3.org/2000/svg"
   viewBox="0 0 300 300"
   height="300"
   width="300"
   id="svg338"
   version="1.1">
  <metadata
     id="metadata344">
    <rdf:RDF>
      <cc:Work
         rdf:about="">
        <dc:format>image/svg+xml</dc:format>
        <dc:type
           rdf:resource="http://purl.org/dc/dcmitype/StillImage" />
        <dc:title></dc:title>
      </cc:Work>
    </rdf:RDF>
  </metadata>
  <defs
     id="defs342" />
  <path
     id="path348"
     d="m 74.258854,275.85038 c -1.532773,-7.56998 -2.185777,-14.53751 -3.782357,-40.3577 -1.434743,-23.2029 -2.173988,-31.50239 -2.881929,-32.35541 -0.775323,-0.9342 -1.690399,-1.06379 -4.926499,-0.69766 -7.063983,0.79919 -24.657742,-4.47295 -28.821419,-8.63662 -3.09514,-3.09515 -3.165715,-4.92443 -0.504999,-13.08929 1.477997,-4.53546 2.522531,-9.36378 2.799148,-12.939 0.362745,-4.68831 0.860567,-6.47062 2.796686,-10.01279 1.295465,-2.37007 3.49841,-8.1935 4.895442,-12.94094 4.094375,-13.91367 3.266321,-13.03116 14.556333,-15.5135 l 9.578861,-2.10611 1.345526,-3.7925 c 1.17519,-3.31238 1.341675,-5.62827 1.315114,-18.29377 -0.01673,-7.9757 -0.377964,-16.67647 -0.802748,-19.335038 -0.592515,-3.708405 -0.538661,-9.013649 0.231357,-22.787724 0.552027,-9.874681 1.175019,-19.232388 1.384426,-20.794906 0.591354,-4.412333 4.677954,-7.271463 8.884257,-6.215747 1.413278,0.35471 1.765794,1.053729 2.416878,4.792548 0.419251,2.407497 0.76227,9.381138 0.76227,15.496979 0,7.291626 0.292664,11.788929 0.850119,13.06364 0.6003,1.372697 0.963796,9.756269 1.236991,28.529608 0.212781,14.62212 0.640331,27.12948 0.950107,27.79412 0.501662,1.07634 1.759082,1.20844 11.502803,1.20844 h 10.939569 l 1.93413,-2.53465 c 1.92297,-2.52005 1.9349,-2.60063 2.07119,-13.98338 0.23514,-19.638611 2.80184,-54.218446 4.43434,-59.74141 1.79186,-6.062172 4.78375,-9.36716 8.47974,-9.36716 1.36726,0 2.48593,0.256395 2.48593,0.569768 0,0.313372 0.64322,4.119958 1.42937,8.459079 1.15729,6.387505 1.28265,8.384954 0.65857,10.493029 -0.42395,1.432046 -0.52337,2.985754 -0.22094,3.452687 0.30243,0.466931 0.62025,11.880296 0.70627,25.363034 0.21022,32.951963 0.16627,32.388263 2.62515,33.676603 1.51426,0.79339 3.3668,0.94412 7.8853,0.64152 11.89041,-0.79628 15.77586,-2.53194 17.198,-7.68249 0.34171,-1.23761 0.34319,-12.08221 0.004,-25.094659 -0.5084,-19.469806 -0.43664,-23.929951 0.4773,-29.664158 0.59162,-3.711917 1.32674,-13.291406 1.63359,-21.287754 0.46112,-12.016042 0.83167,-15.460919 2.13552,-19.852941 C 163.78987,17.391358 164.72336,15 164.9966,15 c 1.70453,0 4.2447,3.268477 5.26773,6.778043 1.02973,3.532555 1.06571,5.721596 0.35957,21.879246 -1.58865,36.351545 -1.6856,49.283343 -0.41151,54.885131 0.83457,3.66927 1.00943,6.17253 0.62461,8.9417 -0.90523,6.514 -0.74707,9.76948 0.51959,10.6957 0.70339,0.51433 6.44268,1.15741 14.82616,1.66125 19.36036,1.16354 17.88181,1.31511 19.57658,-2.00692 2.8213,-5.53021 4.12354,-12.94473 5.56912,-31.70883 0.77537,-10.064578 1.56334,-23.115729 1.75105,-29.002557 0.35042,-10.989872 0.94554,-14.091516 2.84347,-14.819823 1.24127,-0.476318 4.99564,2.849674 7.16489,6.347356 l 1.38357,2.230858 -1.50037,5.988888 -1.50034,5.988886 1.15092,16.376324 1.15092,16.376318 -2.50109,11.90346 c -2.35142,11.19115 -2.4317,11.98015 -1.34147,13.18485 1.96888,2.17557 5.39189,2.87461 11.56022,2.3608 7.41689,-0.61782 11.11428,0.32784 12.92532,3.30586 0.733,1.20531 1.10725,2.39377 0.83167,2.64102 -0.27557,0.24726 -3.91978,1.57587 -8.09825,2.95246 -5.7035,1.87902 -8.75871,2.50289 -12.25703,2.50289 -2.5629,0 -4.65982,0.13506 -4.65982,0.30013 0,0.16507 -0.47992,2.57331 -1.06649,5.35166 -1.52051,7.20217 -4.30208,26.7302 -4.85559,34.08875 -0.55759,7.4129 -0.14534,8.11625 5.40464,9.22068 2.8202,0.56121 5.79248,0.44675 13.38968,-0.51562 9.23871,-1.17029 9.86006,-1.34604 11.53193,-3.26198 4.49505,-5.15124 7.32326,-13.55403 7.34854,-21.83303 0.007,-2.15911 0.32892,-4.7592 0.71625,-5.778 0.57685,-1.51721 0.40221,-2.39282 -0.96522,-4.83941 -1.37288,-2.45636 -1.75808,-4.40491 -2.16813,-10.96754 l -0.49865,-7.98047 h 2.17737 c 2.23762,0 8.38459,2.73185 10.66517,4.73985 3.81525,3.35924 6.65809,13.70367 6.65809,24.22725 0,5.82143 -0.13405,6.34424 -3.43446,13.39434 l -3.43447,7.33647 -8.28964,6.18277 c -10.04888,7.49488 -15.75264,10.34747 -22.3952,11.20034 -11.30974,1.45213 -13.70191,1.91603 -15.30842,2.96865 -1.60161,1.04942 -1.69021,1.45969 -1.68973,7.8243 3.4e-4,4.50658 -0.60417,9.7482 -1.83707,15.92904 -1.80241,9.03599 -1.81844,9.35305 -0.83738,16.5729 0.99106,7.29332 0.98341,7.427 -0.83537,14.61131 -1.00957,3.98784 -2.15551,9.69838 -2.54652,12.69008 -0.75829,5.80155 -2.06412,8.31322 -5.24983,10.09764 -2.16281,1.21146 -2.64492,0.76853 -4.01746,-3.69105 -0.64613,-2.09931 -0.62004,-3.61741 0.12455,-7.25064 0.6083,-2.96821 1.09675,-12.41979 1.37944,-26.69258 0.25635,-12.94312 0.83464,-24.73529 1.39593,-28.46535 0.87965,-5.84559 0.8588,-6.57678 -0.25406,-8.91045 l -1.21234,-2.5423 -10.42842,0.45138 c -5.73562,0.24825 -12.21771,0.45137 -14.40463,0.45137 h -3.97621 l -0.76049,3.54605 c -0.41826,1.95033 -1.08756,8.39822 -1.4873,14.32865 -0.81279,12.05798 -1.90283,16.9794 -4.42451,19.97624 -1.85646,2.20628 -4.49073,3.32234 -4.49073,1.90257 0,-0.47238 -0.63907,-6.58044 -1.42015,-13.57345 -0.89995,-8.05712 -1.25945,-14.36476 -0.98142,-17.21946 0.53984,-5.54302 -0.35073,-6.63229 -5.9617,-7.29175 -3.47673,-0.40862 -18.79067,0.64986 -22.54094,1.55801 -2.67151,0.64693 -3.88875,6.4985 -3.41918,16.43701 0.29446,6.23245 -0.0204,12.17727 -1.2622,23.83996 -0.90996,8.54541 -1.87199,18.64186 -2.13786,22.4366 -0.44072,6.29055 -0.65151,7.06761 -2.38823,8.80434 -1.04767,1.04766 -2.23318,1.90485 -2.63447,1.90485 -1.04177,0 -3.20469,-4.58389 -4.07289,-8.63171 -1.50063,-6.99632 -1.5325,-5.2254 0.50204,-27.90374 0.50469,-11.81878 0.64936,-15.26541 1.07572,-24.92235 -0.0353,-5.32203 -0.37574,-9.21134 -0.888,-10.14338 -1.18208,-2.15073 -5.23016,-2.577 -17.636807,-1.85716 l -10.456397,0.60667 -1.731475,4.29658 c -1.301929,3.23069 -2.214657,4.49846 -3.679212,5.11037 -2.362548,0.9871 -2.147609,2.70669 0.856706,6.85403 3.155239,4.35567 4.482588,10.49731 3.986165,18.44401 -0.231129,3.69998 -0.880254,9.21318 -1.442501,12.25154 -0.562236,3.03836 -1.236363,12.12756 -1.498046,20.19821 L 81.948748,285 h -2.91871 -2.918359 z m 29.196636,-86.15911 c 2.80706,-0.36437 6.06284,-1.22265 7.23507,-1.90726 2.05359,-1.19936 2.1849,-1.56813 3.59964,-10.10926 1.25128,-7.55429 1.37065,-9.84636 0.80763,-15.50748 -0.46644,-4.68989 -0.42581,-7.97139 0.13817,-11.16132 0.92508,-5.23233 0.24846,-7.95847 -2.19795,-8.85576 -4.95151,-1.81611 -12.1298,-2.23032 -20.233542,-1.16756 -4.476837,0.58711 -8.216529,1.14712 -8.310424,1.24447 -0.386606,0.40076 -1.654844,13.88366 -2.062707,21.92891 -0.489379,9.65322 0.519667,21.09414 2.136106,24.22 1.041853,2.0147 1.062768,2.02035 7.414531,1.99908 3.503363,-0.0117 8.666416,-0.31944 11.473476,-0.68382 z m 45.65074,-2.44595 c 3.22826,-1.00411 5.95296,-1.90277 6.05488,-1.99701 0.1019,-0.0942 0.64165,-8.37228 1.19941,-18.39564 0.74264,-13.34586 0.8221,-19.42706 0.29685,-22.7175 -1.30676,-8.1862 -0.92339,-7.60016 -4.97478,-7.60461 -5.37694,-0.007 -18.66016,2.11977 -19.77979,3.16529 -0.74899,0.69942 -1.00726,3.44741 -1.11116,11.82251 -0.0787,6.34572 -0.64097,14.08964 -1.3437,18.50721 -1.32521,8.33058 -1.08323,14.22119 0.72804,17.72381 l 1.11289,2.15208 5.9739,-0.41523 c 3.39162,-0.23575 8.51109,-1.20441 11.84346,-2.24091 z m -83.952724,0.28722 c 3.13422,-1.42806 3.515816,-4.12993 3.386548,-23.9785 -0.06521,-10.01587 -0.375968,-18.45827 -0.690534,-18.7609 -0.314567,-0.30263 -1.659532,-0.65322 -2.98882,-0.7791 l -2.416877,-0.22887 -4.600705,11.39386 c -5.859941,14.51242 -7.611523,20.80351 -7.344099,26.37743 l 0.205671,4.28662 4.488492,1.17409 c 5.478221,1.43297 7.694694,1.54766 9.960324,0.51537 z M 204.05994,169.1624 c 0.3048,-8.26054 0.57225,-19.05882 0.59434,-23.99616 l 0.0402,-8.97699 -7.79371,-1.32213 c -7.61907,-1.29251 -7.97962,-1.29363 -16.09023,-0.0496 -4.56308,0.69985 -8.51372,1.60555 -8.77918,2.01268 -0.26547,0.40711 -0.57149,8.50874 -0.68004,18.00363 -0.10855,9.49488 -0.24866,19.28325 -0.31134,21.75192 -0.20112,7.92127 -0.93056,7.59591 17.02946,7.59591 h 15.43635 l 0.55416,-15.01919 z"
     style="fill:#000000;stroke-width:0.6905371" />
</svg>
